<?xml version="1.0" standalone="no"?>
<!DOCTYPE svg PUBLIC "-//W3C//DTD SVG 20010904//EN"
 "http://www.w3.org/TR/2001/REC-SVG-20010904/DTD/svg10.dtd">
<svg version="1.0" xmlns="http://www.w3.org/2000/svg"
 width="512.000000pt" height="512.000000pt" viewBox="0 0 512.000000 512.000000"
 preserveAspectRatio="xMidYMid meet">
<metadata>
Created by potrace 1.14, written by Peter Selinger 2001-2017
</metadata>
<g transform="translate(0.000000,512.000000) scale(0.100000,-0.100000)"
fill="#000000" stroke="none">
<path d="M0 2560 l0 -2560 2560 0 2560 0 0 2560 0 2560 -2560 0 -2560 0 0
-2560z m3577 1074 c28 -8 37 -34 22 -68 -28 -62 -88 -7 -63 58 7 18 9 18 41
10z m-2152 -360 c0 -10 -8 -20 -17 -22 -18 -3 -26 27 -11 42 12 11 28 0 28
-20z m635 -159 c0 -8 -5 -17 -11 -21 -16 -9 -30 18 -17 33 12 15 28 8 28 -12z
m2479 -184 c9 -6 10 -11 2 -15 -13 -9 -15 -46 -2 -46 5 0 13 9 16 20 9 28 29
25 63 -10 17 -16 34 -30 39 -30 19 0 43 -58 37 -89 -9 -45 -27 -56 -64 -41
-37 15 -46 9 -30 -20 6 -12 9 -28 6 -36 -3 -8 1 -25 9 -38 15 -23 15 -23 -23
-30 -29 -4 -42 -12 -50 -32 -20 -43 -47 -28 -48 28 -3 99 -35 215 -64 233 -29
18 10 79 46 73 11 -2 19 3 20 12 0 8 2 18 2 23 3 10 24 9 41 -2z m-3871 -22
c11 -17 20 -20 45 -15 20 4 27 3 18 -3 -10 -6 -10 -13 -2 -28 8 -17 6 -24 -14
-43 -14 -13 -25 -32 -25 -42 0 -10 -4 -18 -10 -18 -5 0 -10 -10 -9 -22 0 -28
-22 -192 -27 -197 -9 -9 -35 11 -44 35 -8 19 -16 25 -30 21 -24 -6 -44 16 -36
40 11 38 16 93 8 93 -4 0 -13 -5 -19 -11 -15 -15 -64 -3 -57 14 2 7 -4 22 -16
32 -11 10 -20 22 -20 26 0 13 50 63 66 65 21 3 44 24 44 40 0 22 37 16 43 -6
3 -11 13 -20 22 -20 16 0 16 2 2 24 -19 28 -13 36 22 36 16 0 31 -8 39 -21z
m-217 -28 c-12 -16 -21 -32 -21 -36 0 -10 -30 -38 -35 -33 -3 2 5 25 18 51 14
30 29 47 40 47 17 0 17 -2 -2 -29z m4260 2 c13 -15 12 -15 -8 -4 -24 12 -29
21 -14 21 5 0 15 -7 22 -17z m-441 -92 c19 -6 24 -13 22 -31 -1 -12 3 -29 9
-36 9 -11 8 -14 -4 -14 -9 0 -19 -5 -23 -11 -10 -17 14 -34 49 -34 30 0 32 -3
35 -36 3 -33 0 -38 -26 -47 -23 -8 -35 -7 -51 4 -12 9 -26 12 -31 9 -6 -4 -18
-1 -26 6 -13 10 -17 10 -24 0 -5 -9 -10 -10 -14 -2 -4 6 -4 15 -1 21 3 5 -4
31 -15 58 -19 45 -20 50 -5 85 13 32 19 37 48 36 17 -1 43 -4 57 -8z m-1430
-25 c0 -11 -19 -15 -25 -6 -3 5 1 10 9 10 9 0 16 -2 16 -4z m-1458 -61 c32
-46 34 -55 13 -55 -8 0 -15 -5 -15 -11 0 -15 26 -39 44 -39 23 0 48 -41 34
-57 -12 -15 -66 -17 -88 -3 -13 9 -13 12 3 21 23 14 22 32 -3 24 -24 -8 -60
11 -60 31 0 9 -11 25 -25 36 -32 25 -32 42 0 74 34 34 63 28 97 -21z m-462 21
c0 -3 -4 -8 -10 -11 -5 -3 -10 -1 -10 4 0 6 5 11 10 11 6 0 10 -2 10 -4z
m2626 -144 c0 -59 6 -92 27 -143 31 -75 34 -114 11 -123 -23 -9 -69 -7 -98 4
-21 7 -26 6 -26 -5 0 -8 -9 -15 -21 -15 -26 0 -61 19 -54 29 2 5 1 29 -4 54
-9 49 -1 71 36 100 15 12 23 29 23 50 0 22 10 43 29 64 15 17 31 38 34 47 4 9
14 16 24 16 16 0 18 -10 19 -78z m-1873 22 c22 -28 37 -58 37 -74 0 -16 11
-37 31 -56 27 -26 30 -34 27 -79 -1 -27 1 -56 6 -64 16 -25 -65 -59 -85 -35
-8 9 -26 12 -59 9 -40 -4 -50 -1 -70 20 l-24 25 33 68 c29 60 32 74 28 137 -2
39 -2 76 1 83 9 24 38 11 75 -34z m-825 8 c2 -7 -6 -12 -17 -12 -21 0 -27 11
-14 24 9 9 26 2 31 -12z m112 -3 c0 -5 -4 -9 -10 -9 -5 0 -10 7 -10 16 0 8 5
12 10 9 6 -3 10 -10 10 -16z m-3 -45 c-3 -3 -12 -4 -19 -1 -8 3 -5 6 6 6 11 1
17 -2 13 -5z m3343 -2 c0 -14 -11 -21 -26 -15 -8 3 -11 9 -8 14 7 11 34 12 34
1z m-1505 -480 c2 -28 -33 -51 -46 -31 -5 8 -7 20 -4 27 2 6 -1 12 -8 13 -7 0
-3 4 8 9 31 14 48 7 50 -18z m-367 -6 c2 -10 -1 -23 -7 -29 -15 -15 -46 16
-37 38 8 21 40 15 44 -9z m2460 -98 c-6 -18 -28 -21 -28 -4 0 9 7 16 16 16 9
0 14 -5 12 -12z m-1118 -158 c0 -5 -4 -10 -10 -10 -5 0 -10 5 -10 10 0 6 5 10
10 10 6 0 10 -4 10 -10z m-2326 -77 c-25 -40 -52 -17 -39 34 l6 26 22 -22 c17
-16 19 -25 11 -38z m-939 -54 c10 -15 -1 -23 -20 -15 -9 3 -13 10 -10 16 8 13
22 13 30 -1z m4190 1 c3 -5 1 -10 -4 -10 -6 0 -11 5 -11 10 0 6 2 10 4 10 3 0
8 -4 11 -10z m-1203 -525 c0 -5 -5 -11 -11 -13 -6 -2 -11 4 -11 13 0 9 5 15
11 13 6 -2 11 -8 11 -13z m-2527 -141 c30 -20 32 -49 5 -64 -26 -14 -57 -4
-65 20 -7 21 10 60 26 60 5 0 21 -7 34 -16z"/>
<path d="M4220 2630 c0 -5 10 -10 23 -10 18 0 19 2 7 10 -19 13 -30 13 -30 0z"/>
</g>
</svg>
